# xmcd
# Track frame offsets:
# 150
# 12248
# 25940
# 43608
# 60353
# 72765
# 94575
# 106767
# 123747
# 140943
# 153438
# 171116
#
# Disc length: 2477 seconds
# Revision: 0
# Processed by: cddbd v1.5.2PL0 Copyright (c) Steve Scherf et al.
# Submitted via: VisiTrax 2.10.2.252 - For more info visit www.synapsa.com
#
DISCID=9b09ab0c
DTITLE=Totta´s Bluesband - Pärlor
DYEAR=2008
DGENRE=Blues
TTITLE0=Combination Boogie
TTITLE1=Going back to the country
TTITLE2=Bad bad whiskey
TTITLE3=I better keep what I´ve got
TTITLE4=I´m a lover not a fighter
TTITLE5=No expectations
TTITLE6=That´s the truth
TTITLE7=Stop using me
TTITLE8=Bottom of the sea
TTITLE9=Ain´t your business
TTITLE10=Going back to Memphis
TTITLE11=My love for you will never die
EXTD=
EXTT0=
EXTT1=
EXTT2=
EXTT3=
EXTT4=
EXTT5=
EXTT6=
EXTT7=
EXTT8=
EXTT9=
EXTT10=
EXTT11=
PLAYORDER=
